<?xml version="1.0" encoding="utf-8"?>
<!-- Generator: Adobe Illustrator 25.4.1, SVG Export Plug-In . SVG Version: 6.00 Build 0)  -->
<svg version="1.0" id="Layer_1" xmlns="http://www.w3.org/2000/svg" xmlns:xlink="http://www.w3.org/1999/xlink" x="0px" y="0px"
	 viewBox="0 0 237.1 165.6" style="enable-background:new 0 0 237.1 165.6;" xml:space="preserve">
<style type="text/css">
	.st0{fill-rule:evenodd;clip-rule:evenodd;fill:#FF6266;}
	.st1{fill:none;}
</style>
<path class="st0" d="M177.2,101.4c-1.8-1.3-3.2-3.1-4-5.2c-0.9-2.3-1.3-4.7-1.2-7.2c0-2.4,0.5-4.9,1.6-7.1c1-2.2,2.7-4,4.7-5.3
	c2.3-1.4,5-2.1,7.7-2c1.3,0,2.7,0.1,4,0.4c1.2,0.3,2.3,0.8,3.4,1.4l-0.2-10.5c0.1-1.1-0.5-2.1-1.4-2.5c-1.3-0.6-2.7-0.9-4.1-0.9
	c-0.2-0.1-0.4-0.2-0.5-0.4c-0.1-0.2-0.2-0.5-0.2-0.7c0-0.3,0.1-0.5,0.2-0.8c0.1-0.3,0.3-0.4,0.5-0.4c2.9-0.2,6.5-0.3,11-0.3h2.3
	c0.2,0,0.4,0.1,0.6,0.3c0.2,0.2,0.3,0.5,0.3,0.8v36.6c0,0.6,0.1,1.2,0.4,1.7c0.3,0.4,0.6,0.6,1.1,0.7c0.5,0.1,1,0.2,1.6,0.3
	c0.3,0,0.6,0.1,0.8,0.2c0.2,0.2,0.2,0.5,0.2,0.8c0,0.3-0.1,0.5-0.3,0.7c-0.1,0.2-0.4,0.4-0.7,0.4h-9.4c-0.5,0-1-0.1-1.5-0.3
	c-0.1-0.1-0.3-0.2-0.4-0.4c-0.1-0.1-0.2-0.3-0.2-0.5c-0.1-0.6-0.1-1.2-0.1-1.8c-1,1.3-2.3,2.3-3.9,2.8c-1.6,0.7-3.4,1-5.1,1
	C181.8,103.5,179.3,102.8,177.2,101.4 M191,98.7c0.9-0.4,1.6-1,2.1-1.9V80.6c-0.2-0.5-0.6-1-1-1.3c-0.5-0.5-1.1-0.9-1.7-1.2
	c-0.5-0.3-1.2-0.4-1.8-0.4c-2.7,0-4.6,1-5.7,3s-1.7,4.8-1.7,8.5c0,6.9,2.3,10.3,7,10.3C189.1,99.4,190.1,99.2,191,98.7"/>
<path class="st0" d="M102.7,100.7c-0.2-0.2-0.5-0.2-0.8-0.2c-0.6-0.1-1.1-0.1-1.7-0.3c-0.4-0.1-0.8-0.3-1.2-0.7
	c-0.4-0.4-0.5-0.9-0.5-1.5V61.2c0-0.3-0.1-0.6-0.3-0.8c-0.1-0.2-0.3-0.3-0.6-0.3c-4.2,0-8.3,0.1-12.2,0.4c-0.2,0-0.3,0.2-0.5,0.4
	c-0.1,0.2-0.2,0.5-0.2,0.8c0,0.3,0,0.5,0.2,0.7c0.1,0.2,0.3,0.3,0.5,0.4l1,0.2c0.6,0.1,1.2,0.2,1.8,0.3c0.5,0.2,0.9,0.5,1.2,0.9
	c0.4,0.6,0.6,1.3,0.5,2V99c0,0.5-3,1.1-5,1.1s-4.4-0.7-4.6-1.2c-0.2-0.6-0.3-1.2-0.3-1.8V82.4c0-1.4-0.4-2.8-1.3-4
	c-1-1.3-2.4-2.2-3.9-2.7c-2.2-0.7-4.4-1.1-6.7-1c-2,0-4,0.2-5.9,0.7c-1.8,0.4-3.6,1.1-5.1,2.2c-1.3,0.8-2.1,2.2-2.1,3.7
	c0,1.1,0.4,2.1,1.2,2.8c0.6,0.5,1.3,0.8,2,1c0.8,0.1,1.7-0.1,1.6-1.1c0-0.1,0-0.1,0-0.2c-0.2-2.5,1.3-4.9,3.7-5.8l0.4-0.1
	c1-0.3,2-0.5,3-0.4c1.1-0.1,2.2,0.2,3.1,0.9c0.8,0.9,1.1,2.1,1,3.4v4.5c-2.8,0.3-5.6,0.8-8.4,1.4c-2.3,0.5-4.4,1.6-6.3,3
	c-2.9,2.3-3.4,6.5-1.3,9.5c0.4,0.5,0.9,1,1.4,1.4c0.5,0.4,1.1,0.7,1.7,1c1.2,0.5,2.5,0.8,3.7,0.8c1.9,0,3.7-0.3,5.4-1
	c1.6-0.6,3.1-1.5,4.2-2.8v0.1c0,0.6,0.1,1.6,0.1,1.6c0.1,0.6,0.5,1,1,1.3c0.9,0.5,7.1,0.1,8.2,0.1h21c0.1,0,0.3,0,0.4-0.1
	c0.1-0.1,0.2-0.2,0.3-0.3c0.2-0.2,0.2-0.5,0.2-0.8C103,101.2,102.9,100.9,102.7,100.7L102.7,100.7z M71.2,97.2
	c-1.1,1.4-2.7,2.1-4.4,2.1c-1,0.1-2-0.3-2.7-1.1c-0.6-0.7-1-1.6-1-2.6c-0.1-1.5,0.3-2.9,1.2-4.2c0.7-1,1.7-1.7,2.8-2.1
	c1.3-0.5,2.6-0.8,4-1L71.2,97.2z M134.7,102.2c-0.2-0.2-0.2-0.5-0.2-0.8c0-0.3,0-0.5,0.2-0.7c0.2-0.2,0.4-0.3,0.7-0.3
	c1.9-0.2,2.9-0.8,2.9-1.8V81.2c0-0.7-0.1-1.3-0.5-1.9c-0.3-0.4-0.6-0.7-1.1-0.9c-0.5-0.2-1.1-0.3-1.6-0.4c-0.3,0-0.6-0.1-0.9-0.2
	c-0.2-0.1-0.4-0.2-0.5-0.4c-0.1-0.2-0.2-0.5-0.2-0.7c0-0.3,0.1-0.5,0.2-0.8c0.1-0.3,0.3-0.4,0.5-0.4c4.3-0.2,8.1-0.4,11.6-0.4
	c0.2,0,0.4,0.1,0.5,0.2c0.2,0.2,0.3,0.5,0.3,0.8v3.1c0.7-0.7,1.5-1.3,2.4-1.8c1.3-0.8,2.6-1.5,4-1.9c1.5-0.5,3-0.8,4.5-0.8
	c2.3-0.1,4.5,0.5,6.4,1.7c1.6,1.2,2.4,3.3,2.4,6.4v14.8c-0.1,0.8,0.2,1.5,0.8,2c0.5,0.3,1,0.5,1.6,0.6l1.1,0.1
	c0.3,0,0.5,0.1,0.7,0.3c0.2,0.2,0.2,0.5,0.2,0.8c0,0.3-0.1,0.5-0.2,0.8c-0.1,0.1-0.2,0.2-0.3,0.3c-0.1,0.1-0.3,0.1-0.4,0.1h-14.8
	c-0.1,0-0.3,0-0.4-0.1c-0.1-0.1-0.2-0.2-0.3-0.3c-0.2-0.2-0.2-0.5-0.2-0.8c0-0.3,0-0.5,0.2-0.7c0.2-0.2,0.4-0.3,0.7-0.3
	c0.6-0.1,1.3-0.3,1.8-0.6c0.5-0.2,0.8-0.7,0.8-1.2V83.1c0-0.6,0-1.3-0.2-1.9c-0.1-0.6-0.4-1.1-0.9-1.5c-0.6-0.5-1.4-0.8-2.2-0.7
	c-1,0-2,0.2-2.9,0.5c-0.9,0.3-1.8,0.8-2.7,1.3c-0.7,0.4-1.3,1-1.9,1.6v15.4c0,0.6,0.1,1.2,0.4,1.7c0.2,0.4,0.6,0.6,1,0.7
	c0.5,0.1,1,0.2,1.5,0.3c0.3,0,0.6,0.1,0.8,0.2c0.2,0.2,0.2,0.5,0.2,0.8c0,0.3-0.1,0.5-0.3,0.7c-0.1,0.2-0.4,0.4-0.7,0.4h-14.4
	c-0.1,0-0.3,0-0.4-0.1C134.9,102.4,134.8,102.3,134.7,102.2 M107.8,99.6c-2.6-2.5-3.9-6.1-3.9-10.8c-0.1-2.7,0.6-5.3,2.1-7.6
	c1.4-2.1,3.3-3.8,5.6-4.8c2.4-1.1,5-1.6,7.7-1.6c4.1,0,7.1,0.8,9.1,2.4c2.1,1.8,3.4,4.3,3.8,7c0.2,1.5,0.3,3,0.2,4.5h-19
	c-0.1,2.2,0.4,4.4,1.2,6.4c0.7,1.5,1.8,2.7,3.2,3.5c1.2,0.7,2.6,1.1,4.1,1.1c1.4,0,2.9-0.2,4.2-0.7c1.2-0.5,2.2-1.2,3-2.2
	c0.1,0,0.1-0.1,0.2-0.2c0.1-0.1,0.2-0.2,0.3-0.2c0.1,0,0.2,0,0.3,0l1.2,0.6c0.2,0,0.3,0.2,0.3,0.3c0,0.2-0.1,0.3-0.2,0.5
	c-1,1.8-2.5,3.2-4.3,4.1c-2.2,1.1-4.6,1.6-7,1.5C114.4,103.4,110.4,102.1,107.8,99.6 M122.3,79.2c-0.5-1.3-1.7-2.2-3.1-2.1
	c-1.6,0-3,0.9-3.8,2.2c-1.1,1.5-1.7,3.7-2,6.8h9.8C123.3,83.8,123,81.4,122.3,79.2"/>
<path class="st0" d="M52,99.7c-0.1-0.3-0.2-0.6-0.4-0.9c-0.2-0.3-0.3-0.4-0.5-0.3c-0.7,0.4-1.5,0.7-2.3,0.9
	c-0.7,0.2-1.4,0.3-2.1,0.4c-0.6,0-1.1-0.1-1.5-0.4c-0.4-0.5-0.7-1-0.8-1.7c-0.2-1.2-0.3-2.4-0.2-3.6V78.2H50c0.2,0,0.4-0.2,0.6-0.6
	c0.2-0.5,0.3-0.9,0.3-1.4c0-0.2-0.1-0.4-0.2-0.6c-0.1-0.2-0.3-0.3-0.5-0.3h-6.1v-7.7c0-0.3-0.2-0.5-0.6-0.7
	c-0.7-0.2-1.1,0.5-1.1,0.5c-0.5,1.1-1,2.1-1.7,3c-0.7,0.9-1.4,1.8-2.3,2.6c-0.9,0.8-1.8,1.4-2.8,2c-1,0.6-2.1,1-3.2,1.4
	c-0.5,0.1-0.8,0.6-0.7,1.1c0,0,0,0,0,0.1c0,0.1,0,0.2,0.1,0.2c0.1,0.3,0.3,0.4,0.5,0.4h2.9v18.2c0,2.6,0.8,4.4,2.3,5.4
	c1.9,1.1,4.1,1.6,6.3,1.5c1,0,1.9-0.2,2.9-0.5c1.1-0.3,2.1-0.7,3.1-1.2c0.8-0.4,1.5-0.9,2.1-1.5C52.1,100.2,52.1,100,52,99.7"/>
<rect x="23.5" y="54.3" class="st1" width="190" height="57"/>
</svg>
